<svg width="1200" height="630" viewBox="0 0 1200 630" fill="none" xmlns="http://www.w3.org/2000/svg">
  <rect width="1200" height="630" fill="#09040F"/>
  <circle cx="1020" cy="92" r="220" fill="#7C3AED" fill-opacity="0.18"/>
  <circle cx="188" cy="560" r="220" fill="#4C1D95" fill-opacity="0.28"/>
  <rect x="72" y="72" width="1056" height="486" rx="40" fill="url(#paint0_linear)" stroke="rgba(255,255,255,0.08)"/>
  <g filter="url(#filter0_d)">
    <rect x="128" y="148" width="140" height="140" rx="36" fill="#12091F" stroke="#E9D5FF" stroke-width="8"/>
    <path d="M198 170L236 186V214C236 241.62 219.86 267 198 277.62C176.14 267 160 241.62 160 214V186L198 170Z" fill="#BB86FC"/>
    <path d="M182 214C182 205.16 189.16 198 198 198C206.84 198 214 205.16 214 214V226H182V214Z" fill="#12091F"/>
    <rect x="176" y="222" width="44" height="36" rx="10" fill="#F2E7FE"/>
    <circle cx="198" cy="240" r="5" fill="#12091F"/>
  </g>
  <text x="336" y="236" fill="#FFFFFF" font-family="Roboto, Arial, sans-serif" font-size="76" font-weight="700">MaskedFile</text>
  <text x="336" y="306" fill="#D1C4E9" font-family="Roboto, Arial, sans-serif" font-size="30" font-weight="500">Zero-knowledge file sharing for private, encrypted transfers.</text>
  <text x="128" y="420" fill="#FFFFFF" font-family="Roboto, Arial, sans-serif" font-size="36" font-weight="500">Client-side encryption</text>
  <text x="128" y="474" fill="#FFFFFF" font-family="Roboto, Arial, sans-serif" font-size="36" font-weight="500">Short share links</text>
  <text x="128" y="528" fill="#FFFFFF" font-family="Roboto, Arial, sans-serif" font-size="36" font-weight="500">Password and download-limit protection</text>
  <defs>
    <filter id="filter0_d" x="104" y="124" width="188" height="188" filterUnits="userSpaceOnUse" color-interpolation-filters="sRGB">
      <feFlood flood-opacity="0" result="BackgroundImageFix"/>
      <feColorMatrix in="SourceAlpha" type="matrix" values="0 0 0 0 0 0 0 0 0 0 0 0 0 0 0 0 0 0 127 0" result="hardAlpha"/>
      <feOffset/>
      <feGaussianBlur stdDeviation="12"/>
      <feComposite in2="hardAlpha" operator="out"/>
      <feColorMatrix type="matrix" values="0 0 0 0 0.486275 0 0 0 0 0.227451 0 0 0 0 0.933333 0 0 0 0.4 0"/>
      <feBlend mode="normal" in2="BackgroundImageFix" result="effect1_dropShadow"/>
      <feBlend mode="normal" in="SourceGraphic" in2="effect1_dropShadow" result="shape"/>
    </filter>
    <linearGradient id="paint0_linear" x1="72" y1="72" x2="1128" y2="558" gradientUnits="userSpaceOnUse">
      <stop stop-color="#12091F"/>
      <stop offset="1" stop-color="#24103D"/>
    </linearGradient>
  </defs>
</svg>
